{
  "accessors": [
    {
      "bufferView": 2,
      "componentType": 5126,
      "count": 1485,
      "max": [
        117.92818450927734,
        38.965782165527344,
        83.12785339355469
      ],
      "min": [
        -117.92818450927734,
        -0.1689310073852539,
        -83.12785339355469
      ],
      "type": "VEC3"
    },
    {
      "bufferView": 2,
      "byteOffset": 17820,
      "componentType": 5126,
      "count": 1485,
      "max": [
        0.9999932050704956,
        0.9999995827674866,
        0.9999996423721313
      ],
      "min": [
        -0.9999932050704956,
        -0.9999995827674866,
        -0.9999995827674866
      ],
      "type": "VEC3"
    },
    {
      "bufferView": 3,
      "componentType": 5126,
      "count": 1485,
      "max": [
        0.9999993443489075,
        0.9999762773513794,
        1.0,
        1.0
      ],
      "min": [
        -0.9996746778488159,
        -0.9999875426292419,
        -0.9996008276939392,
        -1.0
      ],
      "type": "VEC4"
    },
    {
      "bufferView": 1,
      "componentType": 5126,
      "count": 1485,
      "max": [
        0.9946880340576172,
        0.9882801175117493
      ],
      "min": [
        0.0037106871604919434,
        0.008718401193618774
      ],
      "type": "VEC2"
    },
    {
      "bufferView": 0,
      "componentType": 5125,
      "count": 4557,
      "type": "SCALAR"
    }
  ],
  "asset": {
    "extras": {
      "author": "Jordi Kruk (https://sketchfab.com/JordiKruk)",
      "license": "CC-BY-4.0 (http://creativecommons.org/licenses/by/4.0/)",
      "source": "https://sketchfab.com/3d-models/harry-potter-desk-diorama-0eb4e39ccfc04445926fb2b51adef579",
      "title": "Harry Potter Desk Diorama"
    },
    "generator": "Sketchfab-12.66.0",
    "version": "2.0"
  },
  "bufferViews": [
    {
      "buffer": 0,
      "byteLength": 18228,
      "name": "floatBufferViews",
      "target": 34963
    },
    {
      "buffer": 0,
      "byteLength": 11880,
      "byteOffset": 18228,
      "byteStride": 8,
      "name": "floatBufferViews",
      "target": 34962
    },
    {
      "buffer": 0,
      "byteLength": 35640,
      "byteOffset": 30108,
      "byteStride": 12,
      "name": "floatBufferViews",
      "target": 34962
    },
    {
      "buffer": 0,
      "byteLength": 23760,
      "byteOffset": 65748,
      "byteStride": 16,
      "name": "floatBufferViews",
      "target": 34962
    }
  ],
  "buffers": [
    {
      "byteLength": 89508,
      "uri": "scene.bin"
    }
  ],
  "images": [
    {
      "uri": "textures/HP_Diorama_Mat_baseColor.png"
    },
    {
      "uri": "textures/HP_Diorama_Mat_metallicRoughness.png"
    },
    {
      "uri": "textures/HP_Diorama_Mat_emissive.png"
    },
    {
      "uri": "textures/HP_Diorama_Mat_normal.png"
    }
  ],
  "materials": [
    {
      "alphaMode": "BLEND",
      "doubleSided": true,
      "emissiveFactor": [
        1.0,
        1.0,
        1.0
      ],
      "emissiveTexture": {
        "index": 2
      },
      "name": "HP_Diorama_Mat",
      "normalTexture": {
        "index": 3
      },
      "occlusionTexture": {
        "index": 1
      },
      "pbrMetallicRoughness": {
        "baseColorTexture": {
          "index": 0
        },
        "metallicRoughnessTexture": {
          "index": 1
        }
      }
    }
  ],
  "meshes": [
    {
      "name": "HP_diorama_HP_Diorama_Mat_0",
      "primitives": [
        {
          "attributes": {
            "NORMAL": 1,
            "POSITION": 0,
            "TANGENT": 2,
            "TEXCOORD_0": 3
          },
          "indices": 4,
          "material": 0,
          "mode": 4
        }
      ]
    }
  ],
  "nodes": [
    {
      "children": [
        1
      ],
      "matrix": [
        1.0,
        0.0,
        0.0,
        0.0,
        0.0,
        2.220446049250313e-16,
        -1.0,
        0.0,
        0.0,
        1.0,
        2.220446049250313e-16,
        0.0,
        0.0,
        0.0,
        0.0,
        1.0
      ],
      "name": "Sketchfab_model"
    },
    {
      "children": [
        2
      ],
      "matrix": [
        1.0,
        0.0,
        0.0,
        0.0,
        0.0,
        0.0,
        1.0,
        0.0,
        0.0,
        -1.0,
        0.0,
        0.0,
        0.0,
        0.0,
        0.0,
        1.0
      ],
      "name": "19dc4b195f324fa6993a3d03d0da0b6e.fbx"
    },
    {
      "children": [
        3
      ],
      "name": "RootNode"
    },
    {
      "children": [
        4
      ],
      "name": "HP_diorama"
    },
    {
      "mesh": 0,
      "name": "HP_diorama_HP_Diorama_Mat_0"
    }
  ],
  "samplers": [
    {
      "magFilter": 9729,
      "minFilter": 9987,
      "wrapS": 10497,
      "wrapT": 10497
    }
  ],
  "scene": 0,
  "scenes": [
    {
      "name": "Sketchfab_Scene",
      "nodes": [
        0
      ]
    }
  ],
  "textures": [
    {
      "sampler": 0,
      "source": 0
    },
    {
      "sampler": 0,
      "source": 1
    },
    {
      "sampler": 0,
      "source": 2
    },
    {
      "sampler": 0,
      "source": 3
    }
  ]
}
